Coordinates
version=1
nRows=38
nColumns=12
inDegrees=yes

Units are S.I. units (second, meters, Newtons, ...)
Angles are in degrees

endheader
time	SC_y	SC_z	SC_x	AC_y	AC_z	AC_x	GH_y	GH_z	GH_yy	EL_x	PS_y
       0.0              -31.74          2.812          35.83          34.58        -0.5705        0.03986          162.7          84.27         -112.9          7.986          36.29
   0.03834              -31.74          2.812          35.84          34.58        -0.5728        0.03835          162.7          84.25         -112.9          7.987           36.3
   0.07667              -31.74          2.812          35.84          34.58        -0.5753        0.03675          162.7          84.24         -112.9          7.989          36.31
     0.115              -31.74          2.812          35.85          34.58         -0.578        0.03505          162.7          84.22         -112.9           7.99          36.33
    0.1533              -31.74          2.811          35.85          34.58        -0.5808        0.03323          162.7           84.2         -112.9          7.991          36.34
    0.1917              -31.74          2.811          35.86          34.58        -0.5838         0.0313          162.7          84.18         -112.9          7.993          36.36
      0.23              -31.74          2.811          35.86          34.58         -0.587        0.02924          162.7          84.16         -112.9          7.995          36.37
    0.2683              -31.74          2.811          35.87          34.58        -0.5905        0.02703          162.7          84.14         -112.9          7.996          36.39
    0.3067              -31.74           2.81          35.88          34.58        -0.5941        0.02467          162.7          84.12         -112.9          7.998          36.41
     0.345              -31.74           2.81          35.89          34.58        -0.5981        0.02213          162.7           84.1         -112.9            8.0          36.43
    0.3834              -31.74           2.81          35.89          34.58        -0.6023        0.01941          162.7          84.07         -112.8          8.003          36.45
    0.4217              -31.74          2.809           35.9          34.58        -0.6069        0.01648          162.7          84.04         -112.8          8.005          36.48
      0.46              -31.74          2.809          35.91          34.58        -0.6118        0.01332          162.7          84.01         -112.8          8.007           36.5
    0.4984              -31.74          2.809          35.92          34.58        -0.6171       0.009907          162.7          83.98         -112.8           8.01          36.53
    0.5367              -31.74          2.808          35.93          34.58        -0.6229       0.006214          162.7          83.94         -112.8          8.013          36.56
     0.575              -31.74          2.808          35.94          34.59        -0.6291        0.00221          162.8          83.91         -112.8          8.016          36.59
    0.6134              -31.74          2.807          35.96          34.59        -0.6359      -0.002142          162.8          83.86         -112.8           8.02          36.63
    0.6517              -31.74          2.807          35.97          34.59        -0.6433      -0.006883          162.8          83.82         -112.8          8.024          36.66
      0.69              -31.74          2.806          35.99          34.59        -0.6514       -0.01206          162.8          83.77         -112.7          8.028          36.71
    0.7284              -31.74          2.805           36.0          34.59        -0.6602       -0.01773          162.8          83.72         -112.7          8.032          36.75
    0.7667              -31.74          2.805          36.02          34.59        -0.6699       -0.02395          162.8          83.66         -112.7          8.037           36.8
     0.805              -31.74          2.804          36.04          34.59        -0.6806        -0.0308          162.8          83.59         -112.7          8.043          36.86
    0.8434              -31.74          2.803          36.07          34.59        -0.6923       -0.03837          162.8          83.52         -112.7          8.049          36.92
    0.8817              -31.74          2.802          36.09          34.59        -0.7054       -0.04675          162.8          83.44         -112.6          8.056          36.99
    0.9201              -31.74          2.801          36.12          34.59        -0.7199       -0.05607          162.8          83.35         -112.6          8.063          37.06
    0.9584              -31.74            2.8          36.15          34.59        -0.7361       -0.06647          162.8          83.25         -112.6          8.072          37.15
    0.9967              -31.74          2.798          36.18           34.6        -0.7543       -0.07812          162.8          83.14         -112.5          8.081          37.24
     1.035              -31.74          2.797          36.22           34.6        -0.7747       -0.09122          162.8          83.02         -112.5          8.092          37.35
     1.073              -31.74          2.795          36.27           34.6        -0.7978         -0.106          162.8          82.87         -112.4          8.104          37.47
     1.112              -31.74          2.793          36.32           34.6         -0.824        -0.1228          162.8          82.71         -112.4          8.117           37.6
      1.15              -31.74          2.791          36.37           34.6        -0.8538         -0.142          162.8          82.53         -112.3          8.133          37.76
     1.188              -31.74          2.788          36.44          34.61        -0.8882        -0.1641          162.9          82.32         -112.2           8.15          37.93
     1.227              -31.74          2.785          36.52          34.61        -0.9278        -0.1895          162.9          82.08         -112.2          8.171          38.14
     1.265              -31.74          2.782           36.6          34.61        -0.9738         -0.219          162.9           81.8         -112.1          8.194          38.38
     1.303              -31.74          2.778          36.71          34.62         -1.028        -0.2536          162.9          81.47         -111.9          8.222          38.66
     1.342              -31.74          2.773          36.83          34.62         -1.091        -0.2943          162.9          81.08         -111.8          8.255          38.99
      1.38              -31.74          2.767          36.97          34.63         -1.167        -0.3428          163.0          80.62         -111.6          8.294          39.38
     1.418              -31.74          2.761          37.15          34.64         -1.257        -0.4008          163.0          80.07         -111.5          8.341          39.85
